<svg id="visual" viewBox="0 0 900 600" width="900" height="600" xmlns="http://www.w3.org/2000/svg" xmlns:xlink="http://www.w3.org/1999/xlink" version="1.1"><rect x="0" y="0" width="900" height="600" fill="#111827"></rect><defs><linearGradient id="grad1_0" x1="33.3%" y1="0%" x2="100%" y2="100%"><stop offset="20%" stop-color="#111827" stop-opacity="1"></stop><stop offset="80%" stop-color="#111827" stop-opacity="1"></stop></linearGradient></defs><defs><linearGradient id="grad2_0" x1="0%" y1="0%" x2="66.7%" y2="100%"><stop offset="20%" stop-color="#111827" stop-opacity="1"></stop><stop offset="80%" stop-color="#111827" stop-opacity="1"></stop></linearGradient></defs><g transform="translate(900, 0)"><path d="M0 513.8C-22.5 456 -44.9 398.2 -77.6 390.4C-110.4 382.5 -153.3 424.7 -171.4 413.9C-189.5 403.1 -182.8 339.2 -223.3 334.3C-263.9 329.3 -351.9 383.3 -363.3 363.3C-374.7 343.3 -309.7 249.2 -312.6 208.9C-315.6 168.6 -386.5 182.1 -405.6 168C-424.6 153.9 -391.8 112.4 -401.1 79.8C-410.5 47.2 -462.2 23.6 -513.8 0L0 0Z" fill="#2A3A4E"></path></g><g transform="translate(0, 600)"><path d="M0 -513.8C37.1 -509.1 74.1 -504.5 91.7 -461C109.3 -417.5 107.4 -335.2 133.2 -321.5C159 -307.9 212.4 -362.8 248.3 -371.7C284.3 -380.5 302.7 -343.2 309.7 -309.7C316.7 -276.3 312.2 -246.7 348.4 -232.8C384.6 -218.8 461.4 -220.5 474.7 -196.6C487.9 -172.7 437.6 -123.3 433.5 -86.2C429.4 -49.2 471.6 -24.6 513.8 0L0 0Z" fill="#2A3A4E"></path></g></svg>