<svg id="visual" viewBox="0 0 900 600" width="900" height="600" xmlns="http://www.w3.org/2000/svg" xmlns:xlink="http://www.w3.org/1999/xlink" version="1.1"><rect x="0" y="0" width="900" height="600" fill="#111827"></rect><defs><linearGradient id="grad1_0" x1="33.3%" y1="0%" x2="100%" y2="100%"><stop offset="20%" stop-color="#111827" stop-opacity="1"></stop><stop offset="80%" stop-color="#111827" stop-opacity="1"></stop></linearGradient></defs><defs><linearGradient id="grad2_0" x1="0%" y1="0%" x2="66.7%" y2="100%"><stop offset="20%" stop-color="#111827" stop-opacity="1"></stop><stop offset="80%" stop-color="#111827" stop-opacity="1"></stop></linearGradient></defs><g transform="translate(900, 0)"><path d="M0 513.8C-31.1 488 -62.3 462.2 -86 432.5C-109.8 402.8 -126.2 369.3 -146.2 352.9C-166.2 336.6 -189.7 337.5 -232.8 348.4C-275.8 359.3 -338.3 380.3 -363.3 363.3C-388.3 346.3 -375.8 291.4 -375 250.6C-374.2 209.8 -385.2 183.1 -372.3 154.2C-359.4 125.3 -322.7 94.2 -342.3 68.1C-361.9 42 -437.8 21 -513.8 0L0 0Z" fill="#D97706"></path></g><g transform="translate(0, 600)"><path d="M0 -513.8C28.8 -481.1 57.6 -448.4 84.7 -425.7C111.8 -402.9 137.1 -390.2 152.7 -368.6C168.3 -347.1 174 -316.6 216.7 -324.3C259.3 -331.9 338.8 -377.6 363.3 -363.3C387.8 -349 357.2 -274.8 342.6 -228.9C328 -183 329.4 -165.4 363.1 -150.4C396.8 -135.3 462.8 -122.8 493.3 -98.1C523.8 -73.5 518.8 -36.7 513.8 0L0 0Z" fill="#D97706"></path></g></svg>