<svg id="visual" viewBox="0 0 900 600" width="900" height="600" xmlns="http://www.w3.org/2000/svg" xmlns:xlink="http://www.w3.org/1999/xlink" version="1.1"><rect x="0" y="0" width="900" height="600" fill="#D97706"></rect><defs><linearGradient id="grad1_0" x1="33.3%" y1="0%" x2="100%" y2="100%"><stop offset="20%" stop-color="#d97706" stop-opacity="1"></stop><stop offset="80%" stop-color="#d97706" stop-opacity="1"></stop></linearGradient></defs><defs><linearGradient id="grad2_0" x1="0%" y1="0%" x2="66.7%" y2="100%"><stop offset="20%" stop-color="#d97706" stop-opacity="1"></stop><stop offset="80%" stop-color="#d97706" stop-opacity="1"></stop></linearGradient></defs><g transform="translate(900, 0)"><path d="M0 513.8C-36.3 517.5 -72.5 521.1 -100.2 503.9C-127.9 486.7 -147.1 448.6 -181.4 437.9C-215.7 427.3 -265.1 444.1 -278.3 416.6C-291.6 389.1 -268.6 317.3 -294.2 294.2C-319.7 271.1 -393.8 296.7 -425.7 284.5C-457.7 272.2 -447.5 222.2 -444.4 184.1C-441.3 146 -445.3 119.8 -458 91.1C-470.8 62.4 -492.3 31.2 -513.8 0L0 0Z" fill="#1F2937"></path></g><g transform="translate(0, 600)"><path d="M0 -513.8C35.6 -518.2 71.3 -522.5 100.2 -503.9C129.2 -485.3 151.5 -443.7 169.9 -410.2C188.4 -376.7 203 -351.2 221.1 -330.9C239.3 -310.6 260.9 -295.5 280.7 -280.7C300.5 -265.9 318.4 -251.4 360 -240.6C401.6 -229.7 467 -222.6 469.3 -194.4C471.7 -166.2 411.1 -117.1 408 -81.2C404.9 -45.3 459.4 -22.6 513.8 0L0 0Z" fill="#1F2937"></path></g></svg>