<svg id="visual" viewBox="0 0 900 600" width="900" height="600" xmlns="http://www.w3.org/2000/svg" xmlns:xlink="http://www.w3.org/1999/xlink" version="1.1"><rect x="0" y="0" width="900" height="600" fill="#1F2937"></rect><defs><linearGradient id="grad1_0" x1="33.3%" y1="100%" x2="100%" y2="0%"><stop offset="20%" stop-color="#1f2937" stop-opacity="1"></stop><stop offset="80%" stop-color="#1f2937" stop-opacity="1"></stop></linearGradient></defs><defs><linearGradient id="grad2_0" x1="0%" y1="100%" x2="66.7%" y2="0%"><stop offset="20%" stop-color="#1f2937" stop-opacity="1"></stop><stop offset="80%" stop-color="#1f2937" stop-opacity="1"></stop></linearGradient></defs><g transform="translate(900, 600)"><path d="M-513.8 0C-472.1 -23.3 -430.5 -46.5 -421.5 -74.3C-412.5 -102.1 -436.3 -134.4 -427.6 -155.6C-418.9 -176.8 -377.7 -187 -358.5 -207C-339.3 -227 -342 -257 -333.2 -279.6C-324.4 -302.2 -304.1 -317.5 -291.2 -347C-278.2 -376.5 -272.6 -420.4 -250 -433C-227.4 -445.7 -187.8 -427.2 -159.4 -437.9C-131 -448.6 -113.9 -488.5 -89.2 -506C-64.5 -523.5 -32.3 -518.6 0 -513.8L0 0Z" fill="#D97706"></path></g><g transform="translate(0, 0)"><path d="M513.8 0C461.8 21 409.9 42 408.7 72.1C407.5 102.1 457.2 141.2 462.3 168.3C467.5 195.4 428.1 210.6 414 239C399.8 267.4 410.9 309.1 393.6 330.3C376.3 351.4 330.5 352 293.1 349.3C255.7 346.6 226.6 340.6 208.5 361.1C190.4 381.7 183.4 428.9 164.2 451.1C144.9 473.2 113.4 470.4 84 476.6C54.6 482.9 27.3 498.4 0 513.8L0 0Z" fill="#D97706"></path></g></svg>