<svg id="visual" viewBox="0 0 900 600" width="900" height="600" xmlns="http://www.w3.org/2000/svg" xmlns:xlink="http://www.w3.org/1999/xlink" version="1.1"><g stroke-width="1" stroke-linejoin="bevel"><path d="M407 307L372 421L461 369Z" fill="#733c6b" stroke="#733c6b"></path><path d="M407 307L321 334L372 421Z" fill="#d97706" stroke="#d97706"></path><path d="M372 421L398 463L461 369Z" fill="#903c6a" stroke="#903c6a"></path><path d="M321 334L328 437L372 421Z" fill="#1f2937" stroke="#1f2937"></path><path d="M372 421L328 437L398 463Z" fill="#903c6a" stroke="#903c6a"></path><path d="M616 438L527 275L461 369Z" fill="#d14e44" stroke="#d14e44"></path><path d="M461 369L527 275L407 307Z" fill="#c14256" stroke="#c14256"></path><path d="M527 275L429 196L407 307Z" fill="#2a3149" stroke="#2a3149"></path><path d="M407 307L289 179L321 334Z" fill="#733c6b" stroke="#733c6b"></path><path d="M414 600L505 526L398 463Z" fill="#d9612d" stroke="#d9612d"></path><path d="M398 463L505 526L461 369Z" fill="#2a3149" stroke="#2a3149"></path><path d="M173 435L261 505L328 437Z" fill="#733c6b" stroke="#733c6b"></path><path d="M328 437L261 505L398 463Z" fill="#ab3d63" stroke="#ab3d63"></path><path d="M527 275L504 183L429 196Z" fill="#2a3149" stroke="#2a3149"></path><path d="M203 208L187 328L321 334Z" fill="#c14256" stroke="#c14256"></path><path d="M321 334L187 328L328 437Z" fill="#d9612d" stroke="#d9612d"></path><path d="M262 127L289 179L430 81Z" fill="#3d3759" stroke="#3d3759"></path><path d="M429 196L289 179L407 307Z" fill="#c14256" stroke="#c14256"></path><path d="M505 526L593 477L461 369Z" fill="#1f2937" stroke="#1f2937"></path><path d="M527 275L608 200L504 183Z" fill="#903c6a" stroke="#903c6a"></path><path d="M593 477L616 438L461 369Z" fill="#c14256" stroke="#c14256"></path><path d="M339 600L414 600L398 463Z" fill="#903c6a" stroke="#903c6a"></path><path d="M505 526L634 600L593 477Z" fill="#903c6a" stroke="#903c6a"></path><path d="M187 328L173 435L328 437Z" fill="#ab3d63" stroke="#ab3d63"></path><path d="M215 600L339 600L261 505Z" fill="#c14256" stroke="#c14256"></path><path d="M261 505L339 600L398 463Z" fill="#573a65" stroke="#573a65"></path><path d="M616 438L634 302L527 275Z" fill="#903c6a" stroke="#903c6a"></path><path d="M414 600L478 600L505 526Z" fill="#2a3149" stroke="#2a3149"></path><path d="M289 179L203 208L321 334Z" fill="#d9612d" stroke="#d9612d"></path><path d="M634 302L608 200L527 275Z" fill="#903c6a" stroke="#903c6a"></path><path d="M430 81L289 179L429 196Z" fill="#573a65" stroke="#573a65"></path><path d="M289 179L262 127L203 208Z" fill="#3d3759" stroke="#3d3759"></path><path d="M430 81L429 196L504 183Z" fill="#903c6a" stroke="#903c6a"></path><path d="M120 490L160 511L173 435Z" fill="#c14256" stroke="#c14256"></path><path d="M173 435L160 511L261 505Z" fill="#2a3149" stroke="#2a3149"></path><path d="M80 369L173 435L187 328Z" fill="#1f2937" stroke="#1f2937"></path><path d="M108 168L138 269L203 208Z" fill="#ab3d63" stroke="#ab3d63"></path><path d="M203 208L138 269L187 328Z" fill="#573a65" stroke="#573a65"></path><path d="M616 438L680 326L634 302Z" fill="#d97706" stroke="#d97706"></path><path d="M634 302L726 202L608 200Z" fill="#733c6b" stroke="#733c6b"></path><path d="M529 73L430 81L504 183Z" fill="#903c6a" stroke="#903c6a"></path><path d="M160 511L215 600L261 505Z" fill="#d14e44" stroke="#d14e44"></path><path d="M80 369L120 490L173 435Z" fill="#2a3149" stroke="#2a3149"></path><path d="M160 511L86 600L215 600Z" fill="#1f2937" stroke="#1f2937"></path><path d="M616 438L712 404L680 326Z" fill="#d14e44" stroke="#d14e44"></path><path d="M696 487L712 404L616 438Z" fill="#d97706" stroke="#d97706"></path><path d="M696 487L616 438L593 477Z" fill="#903c6a" stroke="#903c6a"></path><path d="M634 600L696 487L593 477Z" fill="#903c6a" stroke="#903c6a"></path><path d="M138 269L80 369L187 328Z" fill="#1f2937" stroke="#1f2937"></path><path d="M608 200L529 73L504 183Z" fill="#3d3759" stroke="#3d3759"></path><path d="M478 600L634 600L505 526Z" fill="#2a3149" stroke="#2a3149"></path><path d="M272 0L239 74L262 127Z" fill="#ab3d63" stroke="#ab3d63"></path><path d="M262 127L130 80L203 208Z" fill="#903c6a" stroke="#903c6a"></path><path d="M0 314L0 389L80 369Z" fill="#903c6a" stroke="#903c6a"></path><path d="M381 0L262 127L430 81Z" fill="#1f2937" stroke="#1f2937"></path><path d="M130 80L108 168L203 208Z" fill="#d97706" stroke="#d97706"></path><path d="M680 326L726 202L634 302Z" fill="#d97706" stroke="#d97706"></path><path d="M608 200L627 76L529 73Z" fill="#1f2937" stroke="#1f2937"></path><path d="M821 275L726 202L680 326Z" fill="#903c6a" stroke="#903c6a"></path><path d="M523 0L381 0L430 81Z" fill="#c14256" stroke="#c14256"></path><path d="M696 100L627 76L608 200Z" fill="#573a65" stroke="#573a65"></path><path d="M529 73L523 0L430 81Z" fill="#ab3d63" stroke="#ab3d63"></path><path d="M603 0L523 0L529 73Z" fill="#573a65" stroke="#573a65"></path><path d="M381 0L272 0L262 127Z" fill="#573a65" stroke="#573a65"></path><path d="M239 74L130 80L262 127Z" fill="#d9612d" stroke="#d9612d"></path><path d="M0 523L86 600L120 490Z" fill="#d97706" stroke="#d97706"></path><path d="M120 490L86 600L160 511Z" fill="#2a3149" stroke="#2a3149"></path><path d="M171 0L130 80L239 74Z" fill="#d9612d" stroke="#d9612d"></path><path d="M726 202L696 100L608 200Z" fill="#d9612d" stroke="#d9612d"></path><path d="M627 76L603 0L529 73Z" fill="#903c6a" stroke="#903c6a"></path><path d="M730 600L778 499L696 487Z" fill="#2a3149" stroke="#2a3149"></path><path d="M696 487L778 499L712 404Z" fill="#2a3149" stroke="#2a3149"></path><path d="M712 404L805 386L680 326Z" fill="#573a65" stroke="#573a65"></path><path d="M0 314L80 369L138 269Z" fill="#573a65" stroke="#573a65"></path><path d="M80 369L0 389L120 490Z" fill="#903c6a" stroke="#903c6a"></path><path d="M0 314L138 269L0 226Z" fill="#903c6a" stroke="#903c6a"></path><path d="M634 600L730 600L696 487Z" fill="#d14e44" stroke="#d14e44"></path><path d="M0 226L138 269L108 168Z" fill="#573a65" stroke="#573a65"></path><path d="M778 499L805 386L712 404Z" fill="#573a65" stroke="#573a65"></path><path d="M726 202L839 96L696 100Z" fill="#573a65" stroke="#573a65"></path><path d="M711 0L603 0L627 76Z" fill="#3d3759" stroke="#3d3759"></path><path d="M0 126L0 226L108 168Z" fill="#3d3759" stroke="#3d3759"></path><path d="M730 600L760 600L778 499Z" fill="#903c6a" stroke="#903c6a"></path><path d="M778 499L900 396L805 386Z" fill="#d14e44" stroke="#d14e44"></path><path d="M0 389L0 523L120 490Z" fill="#903c6a" stroke="#903c6a"></path><path d="M805 386L821 275L680 326Z" fill="#733c6b" stroke="#733c6b"></path><path d="M272 0L171 0L239 74Z" fill="#d14e44" stroke="#d14e44"></path><path d="M130 80L0 126L108 168Z" fill="#d9612d" stroke="#d9612d"></path><path d="M171 0L123 0L130 80Z" fill="#2a3149" stroke="#2a3149"></path><path d="M0 523L0 600L86 600Z" fill="#2a3149" stroke="#2a3149"></path><path d="M0 0L0 126L130 80Z" fill="#d97706" stroke="#d97706"></path><path d="M821 275L836 190L726 202Z" fill="#733c6b" stroke="#733c6b"></path><path d="M696 100L711 0L627 76Z" fill="#ab3d63" stroke="#ab3d63"></path><path d="M900 237L836 190L821 275Z" fill="#d14e44" stroke="#d14e44"></path><path d="M788 0L711 0L696 100Z" fill="#d9612d" stroke="#d9612d"></path><path d="M900 527L900 396L778 499Z" fill="#d14e44" stroke="#d14e44"></path><path d="M805 386L900 329L821 275Z" fill="#2a3149" stroke="#2a3149"></path><path d="M900 396L900 329L805 386Z" fill="#573a65" stroke="#573a65"></path><path d="M900 89L839 96L836 190Z" fill="#d97706" stroke="#d97706"></path><path d="M836 190L839 96L726 202Z" fill="#d14e44" stroke="#d14e44"></path><path d="M900 329L900 237L821 275Z" fill="#1f2937" stroke="#1f2937"></path><path d="M760 600L900 527L778 499Z" fill="#ab3d63" stroke="#ab3d63"></path><path d="M839 96L788 0L696 100Z" fill="#d97706" stroke="#d97706"></path><path d="M123 0L0 0L130 80Z" fill="#d9612d" stroke="#d9612d"></path><path d="M760 600L900 600L900 527Z" fill="#733c6b" stroke="#733c6b"></path><path d="M900 237L900 89L836 190Z" fill="#1f2937" stroke="#1f2937"></path><path d="M839 96L900 0L788 0Z" fill="#1f2937" stroke="#1f2937"></path><path d="M900 89L900 0L839 96Z" fill="#c14256" stroke="#c14256"></path></g></svg>