<svg id="visual" viewBox="0 0 900 600" width="900" height="600" xmlns="http://www.w3.org/2000/svg" xmlns:xlink="http://www.w3.org/1999/xlink" version="1.1"><path d="M0 43L13.7 44C27.3 45 54.7 47 82 44C109.3 41 136.7 33 163.8 30C191 27 218 29 245.2 30C272.3 31 299.7 31 327 32C354.3 33 381.7 35 409 34C436.3 33 463.7 29 491 27C518.3 25 545.7 25 573 25C600.3 25 627.7 25 654.8 27C682 29 709 33 736.2 32C763.3 31 790.7 25 818 27C845.3 29 872.7 39 886.3 44L900 49L900 0L886.3 0C872.7 0 845.3 0 818 0C790.7 0 763.3 0 736.2 0C709 0 682 0 654.8 0C627.7 0 600.3 0 573 0C545.7 0 518.3 0 491 0C463.7 0 436.3 0 409 0C381.7 0 354.3 0 327 0C299.7 0 272.3 0 245.2 0C218 0 191 0 163.8 0C136.7 0 109.3 0 82 0C54.7 0 27.3 0 13.7 0L0 0Z" fill="#1f2937"></path><path d="M0 85L13.7 84C27.3 83 54.7 81 82 74C109.3 67 136.7 55 163.8 50C191 45 218 47 245.2 55C272.3 63 299.7 77 327 83C354.3 89 381.7 87 409 81C436.3 75 463.7 65 491 60C518.3 55 545.7 55 573 57C600.3 59 627.7 63 654.8 63C682 63 709 59 736.2 58C763.3 57 790.7 59 818 62C845.3 65 872.7 69 886.3 71L900 73L900 47L886.3 42C872.7 37 845.3 27 818 25C790.7 23 763.3 29 736.2 30C709 31 682 27 654.8 25C627.7 23 600.3 23 573 23C545.7 23 518.3 23 491 25C463.7 27 436.3 31 409 32C381.7 33 354.3 31 327 30C299.7 29 272.3 29 245.2 28C218 27 191 25 163.8 28C136.7 31 109.3 39 82 42C54.7 45 27.3 43 13.7 42L0 41Z" fill="#2e324e"></path><path d="M0 145L13.7 153C27.3 161 54.7 177 82 192C109.3 207 136.7 221 163.8 209C191 197 218 159 245.2 156C272.3 153 299.7 185 327 204C354.3 223 381.7 229 409 233C436.3 237 463.7 239 491 242C518.3 245 545.7 249 573 253C600.3 257 627.7 261 654.8 241C682 221 709 177 736.2 173C763.3 169 790.7 205 818 217C845.3 229 872.7 217 886.3 211L900 205L900 71L886.3 69C872.7 67 845.3 63 818 60C790.7 57 763.3 55 736.2 56C709 57 682 61 654.8 61C627.7 61 600.3 57 573 55C545.7 53 518.3 53 491 58C463.7 63 436.3 73 409 79C381.7 85 354.3 87 327 81C299.7 75 272.3 61 245.2 53C218 45 191 43 163.8 48C136.7 53 109.3 65 82 72C54.7 79 27.3 81 13.7 82L0 83Z" fill="#493960"></path><path d="M0 319L13.7 322C27.3 325 54.7 331 82 329C109.3 327 136.7 317 163.8 310C191 303 218 299 245.2 307C272.3 315 299.7 335 327 345C354.3 355 381.7 355 409 351C436.3 347 463.7 339 491 338C518.3 337 545.7 343 573 349C600.3 355 627.7 361 654.8 356C682 351 709 335 736.2 326C763.3 317 790.7 315 818 311C845.3 307 872.7 301 886.3 298L900 295L900 203L886.3 209C872.7 215 845.3 227 818 215C790.7 203 763.3 167 736.2 171C709 175 682 219 654.8 239C627.7 259 600.3 255 573 251C545.7 247 518.3 243 491 240C463.7 237 436.3 235 409 231C381.7 227 354.3 221 327 202C299.7 183 272.3 151 245.2 154C218 157 191 195 163.8 207C136.7 219 109.3 205 82 190C54.7 175 27.3 159 13.7 151L0 143Z" fill="#6c3c6a"></path><path d="M0 379L13.7 379C27.3 379 54.7 379 82 375C109.3 371 136.7 363 163.8 359C191 355 218 355 245.2 359C272.3 363 299.7 371 327 382C354.3 393 381.7 407 409 405C436.3 403 463.7 385 491 383C518.3 381 545.7 395 573 401C600.3 407 627.7 405 654.8 401C682 397 709 391 736.2 388C763.3 385 790.7 385 818 374C845.3 363 872.7 341 886.3 330L900 319L900 293L886.3 296C872.7 299 845.3 305 818 309C790.7 313 763.3 315 736.2 324C709 333 682 349 654.8 354C627.7 359 600.3 353 573 347C545.7 341 518.3 335 491 336C463.7 337 436.3 345 409 349C381.7 353 354.3 353 327 343C299.7 333 272.3 313 245.2 305C218 297 191 301 163.8 308C136.7 315 109.3 325 82 327C54.7 329 27.3 323 13.7 320L0 317Z" fill="#903c6a"></path><path d="M0 415L13.7 414C27.3 413 54.7 411 82 414C109.3 417 136.7 425 163.8 426C191 427 218 421 245.2 417C272.3 413 299.7 411 327 421C354.3 431 381.7 453 409 459C436.3 465 463.7 455 491 453C518.3 451 545.7 457 573 459C600.3 461 627.7 459 654.8 458C682 457 709 457 736.2 449C763.3 441 790.7 425 818 414C845.3 403 872.7 397 886.3 394L900 391L900 317L886.3 328C872.7 339 845.3 361 818 372C790.7 383 763.3 383 736.2 386C709 389 682 395 654.8 399C627.7 403 600.3 405 573 399C545.7 393 518.3 379 491 381C463.7 383 436.3 401 409 403C381.7 405 354.3 391 327 380C299.7 369 272.3 361 245.2 357C218 353 191 353 163.8 357C136.7 361 109.3 369 82 373C54.7 377 27.3 377 13.7 377L0 377Z" fill="#b13e60"></path><path d="M0 463L13.7 460C27.3 457 54.7 451 82 451C109.3 451 136.7 457 163.8 457C191 457 218 451 245.2 452C272.3 453 299.7 461 327 471C354.3 481 381.7 493 409 503C436.3 513 463.7 521 491 524C518.3 527 545.7 525 573 519C600.3 513 627.7 503 654.8 499C682 495 709 497 736.2 496C763.3 495 790.7 491 818 481C845.3 471 872.7 455 886.3 447L900 439L900 389L886.3 392C872.7 395 845.3 401 818 412C790.7 423 763.3 439 736.2 447C709 455 682 455 654.8 456C627.7 457 600.3 459 573 457C545.7 455 518.3 449 491 451C463.7 453 436.3 463 409 457C381.7 451 354.3 429 327 419C299.7 409 272.3 411 245.2 415C218 419 191 425 163.8 424C136.7 423 109.3 415 82 412C54.7 409 27.3 411 13.7 412L0 413Z" fill="#ca474e"></path><path d="M0 505L13.7 502C27.3 499 54.7 493 82 490C109.3 487 136.7 487 163.8 484C191 481 218 475 245.2 475C272.3 475 299.7 481 327 491C354.3 501 381.7 515 409 528C436.3 541 463.7 553 491 559C518.3 565 545.7 565 573 561C600.3 557 627.7 549 654.8 545C682 541 709 541 736.2 535C763.3 529 790.7 517 818 508C845.3 499 872.7 493 886.3 490L900 487L900 437L886.3 445C872.7 453 845.3 469 818 479C790.7 489 763.3 493 736.2 494C709 495 682 493 654.8 497C627.7 501 600.3 511 573 517C545.7 523 518.3 525 491 522C463.7 519 436.3 511 409 501C381.7 491 354.3 479 327 469C299.7 459 272.3 451 245.2 450C218 449 191 455 163.8 455C136.7 455 109.3 449 82 449C54.7 449 27.3 455 13.7 458L0 461Z" fill="#d85c34"></path><path d="M0 601L13.7 601C27.3 601 54.7 601 82 601C109.3 601 136.7 601 163.8 601C191 601 218 601 245.2 601C272.3 601 299.7 601 327 601C354.3 601 381.7 601 409 601C436.3 601 463.7 601 491 601C518.3 601 545.7 601 573 601C600.3 601 627.7 601 654.8 601C682 601 709 601 736.2 601C763.3 601 790.7 601 818 601C845.3 601 872.7 601 886.3 601L900 601L900 485L886.3 488C872.7 491 845.3 497 818 506C790.7 515 763.3 527 736.2 533C709 539 682 539 654.8 543C627.7 547 600.3 555 573 559C545.7 563 518.3 563 491 557C463.7 551 436.3 539 409 526C381.7 513 354.3 499 327 489C299.7 479 272.3 473 245.2 473C218 473 191 479 163.8 482C136.7 485 109.3 485 82 488C54.7 491 27.3 497 13.7 500L0 503Z" fill="#d97706"></path></svg>